<svg width="96" height="90" viewBox="0 0 96 90" fill="none" xmlns="http://www.w3.org/2000/svg">
<path d="M51.2392 20.6C50.8392 21 50.5392 21.4 50.1392 21.8C48.7392 23.4 47.3392 25 45.9392 26.7C45.3392 27.4 44.7392 28.2 44.1392 29C43.3392 30.2 42.4392 31.4 41.6392 32.6C40.5392 34.4 39.5392 36.2 38.6392 38C37.6392 39.8 36.8392 41.7 36.1392 43.6C36.1392 43.7 35.9392 43.8 35.8392 44C35.8392 43.9 35.6392 43.8 35.5392 43.7C35.0392 42.7 34.4392 41.7 33.9392 40.7C33.2392 39.4 32.5392 38.1 31.8392 36.7C31.3392 35.7 30.8392 34.7 30.2392 33.6C29.9392 33.1 29.7392 32.6 29.4392 32.2C29.2392 31.9 29.0392 31.8 28.7392 31.8C25.6392 31.8 22.6392 31.8 19.5392 31.8C18.8392 31.8 18.1392 31.8 17.5392 31.8C17.2392 31.8 17.1392 31.9 17.3392 32.2C18.3392 34.1 19.4392 36 20.4392 37.9C21.1392 39.1 21.7392 40.3 22.4392 41.5C23.3392 43.2 24.2392 44.8 25.1392 46.4C25.6392 47.3 26.1392 48.3 26.6392 49.2C28.0392 51.7 29.4392 54.2 30.8392 56.7C31.7392 58.4 32.7392 60.1 33.6392 61.8C34.3392 63.1 35.0392 64.3 35.7392 65.6C35.8392 65.8 35.9392 66.1 36.0392 66.3C36.0392 66.4 36.2392 66.5 36.4392 66.5C36.4392 66.5 36.6392 66.4 36.6392 66.3C37.0392 65.3 37.3392 64.3 37.7392 63.2C38.1392 62 38.6392 60.8 39.1392 59.6C39.6392 58.2 40.2392 56.9 40.8392 55.6C41.4392 54.3 41.9392 53 42.5392 51.7C43.2392 50.2 43.9392 48.7 44.6392 47.2C45.4392 45.6 46.2392 44 47.1392 42.4C48.5392 40 49.9392 37.6 51.3392 35.3C52.2392 33.9 53.1392 32.5 54.1392 31.1C55.2392 29.5 56.3392 28 57.5392 26.5C58.4392 25.3 59.3392 24.1 60.3392 23C61.9392 21.2 63.6392 19.3 65.3392 17.6C67.2392 15.8 69.1392 14.1 71.1392 12.4C72.5392 11.2 74.1392 10.2 75.6392 9.1C76.4392 8.5 77.2392 8 78.0392 7.4C78.8392 6.9 79.6392 6.5 80.4392 6C81.7392 5.3 82.9392 4.6 84.2392 4C86.2392 3.1 88.2392 2.1 90.4392 1.5C91.8392 1.1 93.2392 0.7 94.6392 0.3C94.7392 0.3 94.9392 0.2 95.0392 0.2C95.3392 0.2 95.5392 0.1 95.8392 0C95.8392 0 95.8392 0 95.8392 0.1C95.8392 0.1 95.6392 0.3 95.5392 0.3C94.3392 0.9 93.1392 1.4 91.9392 2.1C91.1392 2.5 90.2392 3 89.4392 3.6C88.2392 4.3 87.1392 5 86.0392 5.8C84.4392 6.9 82.9392 8.1 81.4392 9.3C78.4392 11.7 75.7392 14.4 73.1392 17.2C71.3392 19.2 69.5392 21.3 67.9392 23.4C66.4392 25.3 65.1392 27.2 63.7392 29.2C62.8392 30.4 62.0392 31.7 61.2392 33C60.7392 33.8 60.1392 34.7 59.6392 35.5C59.0392 36.5 58.4392 37.6 57.8392 38.6C56.8392 40.5 55.7392 42.3 54.7392 44.2C53.5392 46.6 52.3392 49.1 51.2392 51.6C50.3392 53.5 49.5392 55.5 48.6392 57.4C47.9392 58.9 47.3392 60.4 46.7392 62C45.8392 64.2 45.0392 66.5 44.2392 68.8C43.3392 71.4 42.4392 74 41.6392 76.6C41.3392 77.6 41.1392 78.5 40.8392 79.5C40.7392 79.9 40.5392 80.3 40.4392 80.7C39.9392 82.5 39.4392 84.4 38.9392 86.2C38.7392 87 38.5392 87.8 38.3392 88.7C38.3392 89 38.2392 89.3 38.1392 89.7C38.1392 89.7 38.1392 89.7 38.0392 89.7C37.9392 89.6 37.7392 89.4 37.7392 89.3C37.1392 88.1 36.5392 87 35.8392 85.8C35.0392 84.3 34.2392 82.9 33.4392 81.4C32.3392 79.4 31.2392 77.4 30.1392 75.4C28.4392 72.4 26.8392 69.3 25.1392 66.3C24.0392 64.2 22.8392 62.2 21.7392 60.1C20.6392 58 19.4392 55.9 18.3392 53.8C17.2392 51.8 16.2392 49.8 15.1392 47.9C13.9392 45.8 12.8392 43.7 11.6392 41.5C10.6392 39.8 9.73923 38.1 8.73923 36.3C7.43923 33.9 6.13923 31.4 4.83923 29C3.53923 26.6 2.23923 24.3 0.93923 21.9C0.63923 21.4 0.33923 20.8 0.0392305 20.3C-0.0607695 20 0.0392305 19.9 0.239231 19.9C1.23923 19.9 2.23923 19.9 3.23923 19.9C16.8392 19.9 30.4392 19.9 44.1392 19.9C46.1392 19.9 48.1392 19.9 50.1392 19.9C50.4392 19.9 50.7392 19.9 50.9392 19.9C50.9392 19.9 50.9392 19.9 50.9392 20" fill="#005A8B"/>
</svg>
