<?xml version="1.0" encoding="UTF-8"?>
<svg id="Layer_2" data-name="Layer 2" xmlns="http://www.w3.org/2000/svg" version="1.1" viewBox="0 0 300 90">
  <defs>
    <style>
      .cls-1 {
        fill: #1d1d1b;
      }

      .cls-1, .cls-2 {
        stroke-width: 0px;
      }

      .cls-2 {
        fill: #005a8b;
      }
    </style>
  </defs>
  <path class="cls-1" d="M200.2,85.2c0-2,1.6-3.7,3.7-3.7s3.7,1.7,3.7,3.7-1.7,3.7-3.7,3.7-3.7-1.6-3.7-3.7M199.4,85.2c0,2.5,2,4.5,4.5,4.5s4.6-2,4.6-4.5-2-4.6-4.6-4.6-4.5,2-4.5,4.6M187.7,79.6c.2,0,.3,0,.3-.1,0-.3.2-.6.6-.6s.7.9,1.4.9,1-.7,1.1-1c0,0,.1-.3,0-.3h-.2c-.1-.2-.3-.1-.3,0,0,.2-.2.6-.6.6s-.6-.9-1.4-.9-1,.8-1.2,1.1c0,0,0,.2,0,.3h.2ZM187.4,86.6l1.8-4.1h.1c.6,1.4,1.2,2.8,1.8,4.1h-3.8ZM185.4,89.6h.5c.1,0,.2,0,.2-.1l.9-2.1h4.5l.9,2.1c0,0,.1.1.2.1h.5c.2,0,.3-.2.2-.3l-3.8-8.5c0,0-.1-.1-.2-.1h-.1c-.1,0-.2,0-.2.1l-3.8,8.5c0,.2,0,.3.2.3M176.7,89.4c0,.1.1.2.2.2h.5c.1,0,.2-.1.2-.2v-7.8h2.2c.1,0,.2-.1.2-.2v-.4c0-.1-.1-.2-.2-.2h-5.4c-.1,0-.2.1-.2.2v.4c0,.1.1.2.2.2h2.2v7.8ZM162.9,88.7c.2.2,1.2,1,2.7,1s2.7-1,2.7-2.3-1.1-2.1-2.8-2.8c-1.1-.4-1.7-.9-1.7-1.8s.4-1.4,1.7-1.4,1.6.5,1.7.6c.2.1.3,0,.4-.1,0,0,.1-.2.2-.2.2-.2,0-.4,0-.4,0,0-.9-.6-2.2-.6-2,0-2.7,1.4-2.7,2.2,0,1.4.8,2,2.2,2.6,1.5.6,2.2,1.1,2.2,2s-.7,1.4-1.7,1.4-2-.9-2.1-1c-.2-.2-.3,0-.4.1,0,0-.1.2-.2.2-.2.2,0,.3,0,.4M150.6,89.4c0,.1.1.2.2.2h5c.1,0,.2-.1.2-.2v-.4c0-.1-.1-.2-.2-.2h-4.2v-3.2h3.6c.1,0,.2-.1.2-.2v-.4c0-.1-.1-.2-.2-.2h-3.6v-3.1h4.2c.1,0,.2-.1.2-.2v-.4c0-.1-.1-.2-.2-.2h-5c-.1,0-.2.1-.2.2v8.4ZM135.4,85.2c0,2.5,2,4.5,4.6,4.5s3.1-.8,3.1-.8c0,0,.1-.1.1-.2v-2.9c0-.1-.1-.2-.2-.2h-2.2c-.1,0-.2.1-.2.2v.5c0,.1.1.2.2.2h1.5v1.8s-.9.5-2.3.5c-2,0-3.5-1.7-3.5-3.7s1.5-3.6,3.5-3.6,1.8.4,2.4,1c.1.1.2.1.3,0,.1-.1.2-.2.4-.4.1-.1,0-.3,0-.4-.9-.7-1.8-1.2-3.1-1.2-2.5,0-4.6,2-4.6,4.6"/>
  <path class="cls-1" d="M246.3,58.6l6.2-13.9h.3c2.1,4.6,4.1,9.3,6.2,13.9h-12.7ZM239.6,68.7h1.7c.4,0,.6-.3.7-.5l3.1-7h15.1l3.1,7c0,.2.3.5.7.5h1.7c.6,0,1-.6.7-1.1l-12.8-28.5c-.1-.3-.3-.5-.7-.5h-.4c-.4,0-.6.2-.7.5l-12.9,28.5c-.3.6,0,1.1.7,1.1M204.9,53.9c0-6.7,5.5-12.3,12.3-12.3s12.3,5.6,12.3,12.3-5.6,12.3-12.3,12.3-12.3-5.5-12.3-12.3M201.9,53.9c0,8.5,6.7,15.2,15.2,15.2s15.3-6.7,15.3-15.2-6.8-15.3-15.3-15.3-15.2,6.8-15.2,15.3M184.3,67.9c0,.4.4.8.8.8h1.6c.4,0,.8-.4.8-.8v-26h7.4c.5,0,.8-.4.8-.8v-1.2c0-.4-.3-.8-.8-.8h-18c-.5,0-.8.4-.8.8v1.2c0,.4.3.8.8.8h7.4v26ZM143,67.9c0,.4.4.8.8.8h1.5c.5,0,.8-.4.8-.8v-23.1h0l19.5,24.3h.8c.4,0,.8-.3.8-.8v-28.5c0-.4-.4-.8-.8-.8h-1.5c-.5,0-.8.4-.8.8v22.6h0l-19.1-23.8h-1.1c-.4,0-.8.3-.8.8v28.5ZM113.7,67.9c0,.4.3.8.8.8h16.7c.5,0,.8-.4.8-.8v-1.2c0-.4-.3-.8-.8-.8h-14.3v-10.8h12.2c.4,0,.8-.3.8-.8v-1.2c0-.4-.4-.8-.8-.8h-12.2v-10.4h14.3c.5,0,.8-.4.8-.8v-1.2c0-.4-.3-.8-.8-.8h-16.7c-.5,0-.8.4-.8.8v28.1ZM90,68.7c.1.3.4.5.7.5h.4c.3,0,.6-.2.7-.5l12.9-28.5c.3-.6,0-1.1-.7-1.1h-1.7c-.3,0-.6.3-.7.5l-10.6,23.8h-.2l-10.6-23.8c0-.2-.3-.5-.7-.5h-1.7c-.6,0-1,.6-.7,1.1l12.8,28.5Z"/>
  <path class="cls-2" d="M53.4,20.4c-.4.4-.7.8-1.1,1.2-1.4,1.6-2.8,3.2-4.2,4.9-.6.7-1.2,1.5-1.8,2.3-.8,1.2-1.7,2.4-2.5,3.6-1.1,1.8-2.1,3.6-3,5.4-1,1.8-1.8,3.7-2.5,5.6,0,.1-.2.2-.3.4,0-.1-.2-.2-.3-.3-.5-1-1.1-2-1.6-3-.7-1.3-1.4-2.6-2.1-4-.5-1-1-2-1.6-3.1-.3-.5-.5-1-.8-1.4-.2-.3-.4-.4-.7-.4-3.1,0-6.1,0-9.2,0-.7,0-1.4,0-2,0-.3,0-.4.1-.2.4,1,1.9,2.1,3.8,3.1,5.7.7,1.2,1.3,2.4,2,3.6.9,1.7,1.8,3.3,2.7,4.9.5.9,1,1.9,1.5,2.8,1.4,2.5,2.8,5,4.2,7.5.9,1.7,1.9,3.4,2.8,5.1.7,1.3,1.4,2.5,2.1,3.8.1.2.2.5.3.7,0,.1.2.2.4.2,0,0,.2-.1.2-.2.4-1,.7-2,1.1-3.1.4-1.2.9-2.4,1.4-3.6.5-1.4,1.1-2.7,1.7-4,.6-1.3,1.1-2.6,1.7-3.9.7-1.5,1.4-3,2.1-4.5.8-1.6,1.6-3.2,2.5-4.8,1.4-2.4,2.8-4.8,4.2-7.1.9-1.4,1.8-2.8,2.8-4.2,1.1-1.6,2.2-3.1,3.4-4.6.9-1.2,1.8-2.4,2.8-3.5,1.6-1.8,3.3-3.7,5-5.4,1.9-1.8,3.8-3.5,5.8-5.2,1.4-1.2,3-2.2,4.5-3.3.8-.6,1.6-1.1,2.4-1.7.8-.5,1.6-.9,2.4-1.4,1.3-.7,2.5-1.4,3.8-2,2-.9,4-1.9,6.2-2.5,1.4-.4,2.8-.8,4.2-1.2.1,0,.3-.1.4-.1.3,0,.5-.1.8-.2,0,0,0,0,0,.1,0,0-.2.2-.3.2-1.2.6-2.4,1.1-3.6,1.8-.8.4-1.7.9-2.5,1.5-1.2.7-2.3,1.4-3.4,2.2-1.6,1.1-3.1,2.3-4.6,3.5-3,2.4-5.7,5.1-8.3,7.9-1.8,2-3.6,4.1-5.2,6.2-1.5,1.9-2.8,3.8-4.2,5.8-.9,1.2-1.7,2.5-2.5,3.8-.5.8-1.1,1.7-1.6,2.5-.6,1-1.2,2.1-1.8,3.1-1,1.9-2.1,3.7-3.1,5.6-1.2,2.4-2.4,4.9-3.5,7.4-.9,1.9-1.7,3.9-2.6,5.8-.7,1.5-1.3,3-1.9,4.6-.9,2.2-1.7,4.5-2.5,6.8-.9,2.6-1.8,5.2-2.6,7.8-.3,1-.5,1.9-.8,2.9-.1.4-.3.8-.4,1.2-.5,1.8-1,3.7-1.5,5.5-.2.8-.4,1.6-.6,2.5,0,.3-.1.6-.2,1,0,0,0,0-.1,0-.1-.1-.3-.3-.3-.4-.6-1.2-1.2-2.3-1.9-3.5-.8-1.5-1.6-2.9-2.4-4.4-1.1-2-2.2-4-3.3-6-1.7-3-3.3-6.1-5-9.1-1.1-2.1-2.3-4.1-3.4-6.2-1.1-2.1-2.3-4.2-3.4-6.3-1.1-2-2.1-4-3.2-5.9-1.2-2.1-2.3-4.2-3.5-6.4-1-1.7-1.9-3.4-2.9-5.2-1.3-2.4-2.6-4.9-3.9-7.3-1.3-2.4-2.6-4.7-3.9-7.1-.3-.5-.6-1.1-.9-1.6-.1-.3,0-.4.2-.4,1,0,2,0,3,0,13.6,0,27.2,0,40.9,0,2,0,4,0,6,0,.3,0,.6,0,.8,0,0,0,0,0,0,.1"/>
</svg>