<svg width="300" height="90" viewBox="0 0 300 90" fill="none" xmlns="http://www.w3.org/2000/svg">
<g clip-path="url(#clip0_28_6)">
<path d="M200.2 85.2C200.2 83.2 201.8 81.5 203.9 81.5C206 81.5 207.6 83.2 207.6 85.2C207.6 87.2 205.9 88.9 203.9 88.9C201.9 88.9 200.2 87.3 200.2 85.2ZM199.4 85.2C199.4 87.7 201.4 89.7 203.9 89.7C206.4 89.7 208.5 87.7 208.5 85.2C208.5 82.7 206.5 80.6 203.9 80.6C201.3 80.6 199.4 82.6 199.4 85.2ZM187.7 79.6C187.9 79.6 188 79.6 188 79.5C188 79.2 188.2 78.9 188.6 78.9C189 78.9 189.3 79.8 190 79.8C190.7 79.8 191 79.1 191.1 78.8C191.1 78.8 191.2 78.5 191.1 78.5H190.9C190.8 78.3 190.6 78.4 190.6 78.5C190.6 78.7 190.4 79.1 190 79.1C189.6 79.1 189.4 78.2 188.6 78.2C187.8 78.2 187.6 79 187.4 79.3C187.4 79.3 187.4 79.5 187.4 79.6H187.6H187.7ZM187.4 86.6L189.2 82.5H189.3C189.9 83.9 190.5 85.3 191.1 86.6H187.3H187.4ZM185.4 89.6H185.9C186 89.6 186.1 89.6 186.1 89.5L187 87.4H191.5L192.4 89.5C192.4 89.5 192.5 89.6 192.6 89.6H193.1C193.3 89.6 193.4 89.4 193.3 89.3L189.5 80.8C189.5 80.8 189.4 80.7 189.3 80.7H189.2C189.1 80.7 189 80.7 189 80.8L185.2 89.3C185.2 89.5 185.2 89.6 185.4 89.6ZM176.7 89.4C176.7 89.5 176.8 89.6 176.9 89.6H177.4C177.5 89.6 177.6 89.5 177.6 89.4V81.6H179.8C179.9 81.6 180 81.5 180 81.4V81C180 80.9 179.9 80.8 179.8 80.8H174.4C174.3 80.8 174.2 80.9 174.2 81V81.4C174.2 81.5 174.3 81.6 174.4 81.6H176.6V89.4H176.7ZM162.9 88.7C163.1 88.9 164.1 89.7 165.6 89.7C167.1 89.7 168.3 88.7 168.3 87.4C168.3 86.1 167.2 85.3 165.5 84.6C164.4 84.2 163.8 83.7 163.8 82.8C163.8 81.9 164.2 81.4 165.5 81.4C166.8 81.4 167.1 81.9 167.2 82C167.4 82.1 167.5 82 167.6 81.9C167.6 81.9 167.7 81.7 167.8 81.7C168 81.5 167.8 81.3 167.8 81.3C167.8 81.3 166.9 80.7 165.6 80.7C163.6 80.7 162.9 82.1 162.9 82.9C162.9 84.3 163.7 84.9 165.1 85.5C166.6 86.1 167.3 86.6 167.3 87.5C167.3 88.4 166.6 88.9 165.6 88.9C164.6 88.9 163.6 88 163.5 87.9C163.3 87.7 163.2 87.9 163.1 88C163.1 88 163 88.2 162.9 88.2C162.7 88.4 162.9 88.5 162.9 88.6M150.6 89.4C150.6 89.5 150.7 89.6 150.8 89.6H155.8C155.9 89.6 156 89.5 156 89.4V89C156 88.9 155.9 88.8 155.8 88.8H151.6V85.6H155.2C155.3 85.6 155.4 85.5 155.4 85.4V85C155.4 84.9 155.3 84.8 155.2 84.8H151.6V81.7H155.8C155.9 81.7 156 81.6 156 81.5V81.1C156 81 155.9 80.9 155.8 80.9H150.8C150.7 80.9 150.6 81 150.6 81.1V89.5V89.4ZM135.4 85.2C135.4 87.7 137.4 89.7 140 89.7C142.6 89.7 143.1 88.9 143.1 88.9C143.1 88.9 143.2 88.8 143.2 88.7V85.8C143.2 85.7 143.1 85.6 143 85.6H140.8C140.7 85.6 140.6 85.7 140.6 85.8V86.3C140.6 86.4 140.7 86.5 140.8 86.5H142.3V88.3C142.3 88.3 141.4 88.8 140 88.8C138 88.8 136.5 87.1 136.5 85.1C136.5 83.1 138 81.5 140 81.5C142 81.5 141.8 81.9 142.4 82.5C142.5 82.6 142.6 82.6 142.7 82.5C142.8 82.4 142.9 82.3 143.1 82.1C143.2 82 143.1 81.8 143.1 81.7C142.2 81 141.3 80.5 140 80.5C137.5 80.5 135.4 82.5 135.4 85.1" fill="white"/>
<path d="M246.3 58.6L252.5 44.7H252.8C254.9 49.3 256.9 54 259 58.6H246.3ZM239.6 68.7H241.3C241.7 68.7 241.9 68.4 242 68.2L245.1 61.2H260.2L263.3 68.2C263.3 68.4 263.6 68.7 264 68.7H265.7C266.3 68.7 266.7 68.1 266.4 67.6L253.6 39.1C253.5 38.8 253.3 38.6 252.9 38.6H252.5C252.1 38.6 251.9 38.8 251.8 39.1L238.9 67.6C238.6 68.2 238.9 68.7 239.6 68.7ZM204.9 53.9C204.9 47.2 210.4 41.6 217.2 41.6C224 41.6 229.5 47.2 229.5 53.9C229.5 60.6 223.9 66.2 217.2 66.2C210.5 66.2 204.9 60.7 204.9 53.9ZM201.9 53.9C201.9 62.4 208.6 69.1 217.1 69.1C225.6 69.1 232.4 62.4 232.4 53.9C232.4 45.4 225.6 38.6 217.1 38.6C208.6 38.6 201.9 45.4 201.9 53.9ZM184.3 67.9C184.3 68.3 184.7 68.7 185.1 68.7H186.7C187.1 68.7 187.5 68.3 187.5 67.9V41.9H194.9C195.4 41.9 195.7 41.5 195.7 41.1V39.9C195.7 39.5 195.4 39.1 194.9 39.1H176.9C176.4 39.1 176.1 39.5 176.1 39.9V41.1C176.1 41.5 176.4 41.9 176.9 41.9H184.3V67.9ZM143 67.9C143 68.3 143.4 68.7 143.8 68.7H145.3C145.8 68.7 146.1 68.3 146.1 67.9V44.8L165.6 69.1H166.4C166.8 69.1 167.2 68.8 167.2 68.3V39.8C167.2 39.4 166.8 39 166.4 39H164.9C164.4 39 164.1 39.4 164.1 39.8V62.4L145 38.6H143.9C143.5 38.6 143.1 38.9 143.1 39.4V67.9H143ZM113.7 67.9C113.7 68.3 114 68.7 114.5 68.7H131.2C131.7 68.7 132 68.3 132 67.9V66.7C132 66.3 131.7 65.9 131.2 65.9H116.9V55.1H129.1C129.5 55.1 129.9 54.8 129.9 54.3V53.1C129.9 52.7 129.5 52.3 129.1 52.3H116.9V41.9H131.2C131.7 41.9 132 41.5 132 41.1V39.9C132 39.5 131.7 39.1 131.2 39.1H114.5C114 39.1 113.7 39.5 113.7 39.9V68V67.9ZM90 68.7C90.1 69 90.4 69.2 90.7 69.2H91.1C91.4 69.2 91.7 69 91.8 68.7L104.7 40.2C105 39.6 104.7 39.1 104 39.1H102.3C102 39.1 101.7 39.4 101.6 39.6L91 63.4H90.8L80.2 39.6C80.2 39.4 79.9 39.1 79.5 39.1H77.8C77.2 39.1 76.8 39.7 77.1 40.2L89.9 68.7H90Z" fill="white"/>
<path d="M53.4 20.4C53 20.8 52.7 21.2 52.3 21.6C50.9 23.2 49.5 24.8 48.1 26.5C47.5 27.2 46.9 28 46.3 28.8C45.5 30 44.6 31.2 43.8 32.4C42.7 34.2 41.7 36 40.8 37.8C39.8 39.6 39 41.5 38.3 43.4C38.3 43.5 38.1 43.6 38 43.8C38 43.7 37.8 43.6 37.7 43.5C37.2 42.5 36.6 41.5 36.1 40.5C35.4 39.2 34.7 37.9 34 36.5C33.5 35.5 33 34.5 32.4 33.4C32.1 32.9 31.9 32.4 31.6 32C31.4 31.7 31.2 31.6 30.9 31.6C27.8 31.6 24.8 31.6 21.7 31.6C21 31.6 20.3 31.6 19.7 31.6C19.4 31.6 19.3 31.7 19.5 32C20.5 33.9 21.6 35.8 22.6 37.7C23.3 38.9 23.9 40.1 24.6 41.3C25.5 43 26.4 44.6 27.3 46.2C27.8 47.1 28.3 48.1 28.8 49C30.2 51.5 31.6 54 33 56.5C33.9 58.2 34.9 59.9 35.8 61.6C36.5 62.9 37.2 64.1 37.9 65.4C38 65.6 38.1 65.9 38.2 66.1C38.2 66.2 38.4 66.3 38.6 66.3C38.6 66.3 38.8 66.2 38.8 66.1C39.2 65.1 39.5 64.1 39.9 63C40.3 61.8 40.8 60.6 41.3 59.4C41.8 58 42.4 56.7 43 55.4C43.6 54.1 44.1 52.8 44.7 51.5C45.4 50 46.1 48.5 46.8 47C47.6 45.4 48.4 43.8 49.3 42.2C50.7 39.8 52.1 37.4 53.5 35.1C54.4 33.7 55.3 32.3 56.3 30.9C57.4 29.3 58.5 27.8 59.7 26.3C60.6 25.1 61.5 23.9 62.5 22.8C64.1 21 65.8 19.1 67.5 17.4C69.4 15.6 71.3 13.9 73.3 12.2C74.7 11 76.3 9.99999 77.8 8.89999C78.6 8.29999 79.4 7.79999 80.2 7.19999C81 6.69999 81.8 6.29999 82.6 5.79999C83.9 5.09999 85.1 4.39999 86.4 3.79999C88.4 2.89999 90.4 1.89999 92.6 1.29999C94 0.899988 95.4 0.499988 96.8 0.0999878C96.9 0.0999878 97.1 -1.22041e-05 97.2 -1.22041e-05C97.5 -1.22041e-05 97.7 -0.100012 98 -0.200012C98 -0.200012 98 -0.200012 98 -0.100012C98 -0.100012 97.8 0.0999878 97.7 0.0999878C96.5 0.699988 95.3 1.19999 94.1 1.89999C93.3 2.29999 92.4 2.79999 91.6 3.39999C90.4 4.09999 89.3 4.79999 88.2 5.59999C86.6 6.69999 85.1 7.89999 83.6 9.09999C80.6 11.5 77.9 14.2 75.3 17C73.5 19 71.7 21.1 70.1 23.2C68.6 25.1 67.3 27 65.9 29C65 30.2 64.2 31.5 63.4 32.8C62.9 33.6 62.3 34.5 61.8 35.3C61.2 36.3 60.6 37.4 60 38.4C59 40.3 57.9 42.1 56.9 44C55.7 46.4 54.5 48.9 53.4 51.4C52.5 53.3 51.7 55.3 50.8 57.2C50.1 58.7 49.5 60.2 48.9 61.8C48 64 47.2 66.3 46.4 68.6C45.5 71.2 44.6 73.8 43.8 76.4C43.5 77.4 43.3 78.3 43 79.3C42.9 79.7 42.7 80.1 42.6 80.5C42.1 82.3 41.6 84.2 41.1 86C40.9 86.8 40.7 87.6 40.5 88.5C40.5 88.8 40.4 89.1 40.3 89.5C40.3 89.5 40.3 89.5 40.2 89.5C40.1 89.4 39.9 89.2 39.9 89.1C39.3 87.9 38.7 86.8 38 85.6C37.2 84.1 36.4 82.7 35.6 81.2C34.5 79.2 33.4 77.2 32.3 75.2C30.6 72.2 29 69.1 27.3 66.1C26.2 64 25 62 23.9 59.9C22.8 57.8 21.6 55.7 20.5 53.6C19.4 51.6 18.4 49.6 17.3 47.7C16.1 45.6 15 43.5 13.8 41.3C12.8 39.6 11.9 37.9 10.9 36.1C9.6 33.7 8.3 31.2 7 28.8C5.7 26.4 4.4 24.1 3.1 21.7C2.8 21.2 2.5 20.6 2.2 20.1C2.1 19.8 2.2 19.7 2.4 19.7C3.4 19.7 4.4 19.7 5.4 19.7C19 19.7 32.6 19.7 46.3 19.7C48.3 19.7 50.3 19.7 52.3 19.7C52.6 19.7 52.9 19.7 53.1 19.7C53.1 19.7 53.1 19.7 53.1 19.8" fill="white"/>
</g>
<defs>
<clipPath id="clip0_28_6">
<rect width="300" height="90" fill="white"/>
</clipPath>
</defs>
</svg>
